<svg xmlns="http://www.w3.org/2000/svg" xmlns:xlink="http://www.w3.org/1999/xlink" width="500" zoomAndPan="magnify" viewBox="0 0 375 374.999991" height="500" preserveAspectRatio="xMidYMid meet" version="1.0"><defs><filter x="0%" y="0%" width="100%" height="100%" id="a6b52e0aaf"><feColorMatrix values="0 0 0 0 1 0 0 0 0 1 0 0 0 0 1 0 0 0 1 0" color-interpolation-filters="sRGB"/></filter><mask id="3948e9bd6d"><g filter="url(#a6b52e0aaf)"><rect x="-37.5" width="450" fill="#000000" y="-37.499999" height="449.999989" fill-opacity="0.6"/></g></mask><clipPath id="1e8f322c39"><path d="M 0.199219 0.359375 L 98.601562 0.359375 L 98.601562 92.519531 L 0.199219 92.519531 Z M 0.199219 0.359375 " clip-rule="nonzero"/></clipPath><clipPath id="b8677bf341"><rect x="0" width="99" y="0" height="93"/></clipPath><mask id="78fec64f18"><g filter="url(#a6b52e0aaf)"><rect x="-37.5" width="450" fill="#000000" y="-37.499999" height="449.999989" fill-opacity="0.5"/></g></mask><clipPath id="c8357ef618"><path d="M 0.359375 0.441406 L 81.960938 0.441406 L 81.960938 85.398438 L 0.359375 85.398438 Z M 0.359375 0.441406 " clip-rule="nonzero"/></clipPath><clipPath id="5ee9adfd22"><rect x="0" width="82" y="0" height="86"/></clipPath></defs><path fill="#ffffff" d="M 147.710938 162.777344 C 112.796875 217.34375 197.652344 262.480469 230.757812 210.019531 C 262.199219 160.199219 172.941406 112.519531 147.710938 162.777344 " fill-opacity="1" fill-rule="nonzero"/><g mask="url(#3948e9bd6d)"><g transform="matrix(1, 0, 0, 1, 139, 141)"><g clip-path="url(#b8677bf341)"><g clip-path="url(#1e8f322c39)"><path fill="#ffb17a" d="M 8.710938 21.777344 C -26.203125 76.34375 58.652344 121.480469 91.757812 69.019531 C 123.199219 19.199219 33.941406 -28.480469 8.710938 21.777344 " fill-opacity="1" fill-rule="nonzero"/></g></g></g></g><g mask="url(#78fec64f18)"><g transform="matrix(1, 0, 0, 1, 147, 145)"><g clip-path="url(#5ee9adfd22)"><g clip-path="url(#c8357ef618)"><path fill="#ffb17a" d="M 34.710938 1.917969 C -21.835938 10.472656 -2.445312 93.105469 51.664062 84.550781 C 103.03125 76.429688 82.785156 -10.566406 34.710938 1.917969 " fill-opacity="1" fill-rule="nonzero"/></g></g></g></g><path fill="#ffffff" d="M 192.90625 177.464844 L 192.90625 172.542969 C 192.90625 171.808594 192.949219 171.234375 193.007812 170.835938 C 193.066406 170.441406 193.226562 170.042969 193.484375 169.644531 C 193.722656 169.25 194.117188 168.992188 194.652344 168.832031 C 195.191406 168.671875 195.925781 168.613281 196.816406 168.613281 L 201.742188 168.613281 L 201.742188 158.769531 L 193.878906 158.769531 C 189.335938 158.769531 186.058594 159.839844 184.074219 162.003906 C 182.089844 164.167969 181.097656 167.34375 181.097656 171.550781 L 181.097656 177.464844 L 175.203125 177.464844 L 175.203125 187.3125 L 181.097656 187.3125 L 181.097656 215.855469 L 192.90625 215.855469 L 192.90625 187.3125 L 200.769531 187.3125 L 201.800781 177.464844 Z M 192.90625 177.464844 " fill-opacity="1" fill-rule="nonzero"/></svg>