<svg xmlns="http://www.w3.org/2000/svg" xmlns:xlink="http://www.w3.org/1999/xlink" width="500" zoomAndPan="magnify" viewBox="0 0 375 374.999991" height="500" preserveAspectRatio="xMidYMid meet" version="1.0"><defs><clipPath id="f8555ad628"><path d="M 112.6875 91.71875 L 262.6875 91.71875 L 262.6875 241.71875 L 112.6875 241.71875 Z M 112.6875 91.71875 " clip-rule="nonzero"/></clipPath></defs><g clip-path="url(#f8555ad628)"><path fill="#8e7dbe" d="M 112.980469 122.800781 C 112.703125 134.910156 112.875 148.398438 113.292969 161.894531 C 113.710938 175.375 114.359375 188.832031 115.300781 200.878906 C 115.710938 207.953125 116.445312 216.261719 119.234375 223.351562 C 121.226562 228.414062 124.25 232.882812 128.980469 235.964844 C 133.613281 239.011719 139.15625 240.355469 144.976562 240.835938 C 153.015625 241.5 161.597656 240.457031 168.800781 240.160156 C 175.0625 239.902344 181.316406 239.949219 187.570312 240.117188 C 202.378906 240.523438 217.175781 241.660156 232.007812 241.496094 C 240.363281 241.363281 248.507812 240.257812 254.0625 236.195312 C 258.261719 233.128906 261.195312 228.46875 261.847656 221.3125 C 262.257812 216.453125 262.308594 211.589844 262.089844 206.726562 C 261.589844 195.828125 259.867188 184.953125 259.429688 174.082031 C 259.25 170.183594 259.265625 166.273438 259.390625 162.355469 C 259.691406 153.011719 260.582031 143.648438 260.914062 134.355469 C 261.140625 127.894531 261.867188 120.191406 260.371094 113.433594 C 259.261719 108.417969 257.011719 103.886719 252.640625 100.566406 C 247.609375 96.675781 241.753906 94.785156 235.59375 93.90625 C 226.933594 92.671875 217.632812 93.492188 209.359375 93.683594 C 205.558594 93.75 201.757812 93.71875 197.953125 93.617188 C 182.5625 93.207031 167.15625 91.785156 151.75 92.023438 C 140.515625 92.164062 131.496094 93.320312 125.054688 97.285156 C 118.035156 101.609375 113.664062 109.175781 112.984375 122.796875 Z M 121.910156 123.257812 C 121.914062 123.222656 121.914062 123.183594 121.917969 123.144531 C 122.019531 113.203125 124.375 107.324219 129.359375 103.984375 C 134.707031 100.402344 142.421875 99.488281 151.972656 99.003906 C 155.761719 98.808594 159.550781 98.707031 163.34375 98.683594 C 178.742188 98.589844 194.167969 99.550781 209.515625 98.851562 C 217.527344 98.542969 226.535156 97.445312 234.925781 98.628906 C 240.234375 99.375 245.277344 101.078125 249.570312 104.484375 C 252.820312 107.117188 254.375 110.65625 255.082031 114.503906 C 256.25 120.847656 255.148438 128 254.683594 134.003906 C 253.96875 143.292969 252.6875 152.625 252 161.964844 C 251.699219 166.074219 251.519531 170.179688 251.539062 174.28125 C 251.652344 185.183594 252.894531 196.132812 253.21875 207.0625 C 253.351562 211.566406 253.363281 216.066406 252.976562 220.5625 C 252.574219 225.789062 250.210938 228.824219 246.6875 230.535156 C 242.542969 232.546875 237.199219 233.074219 231.773438 233.296875 C 217.0625 233.980469 202.339844 233.355469 187.636719 233.480469 C 181.234375 233.53125 174.839844 233.722656 168.449219 234.214844 C 161.457031 234.757812 153.152344 236.132812 145.3125 235.742188 C 140.320312 235.492188 135.519531 234.535156 131.476562 232.042969 C 127.515625 229.582031 124.925781 225.929688 123.253906 221.753906 C 120.59375 215.125 120.144531 207.273438 119.820312 200.636719 C 119.484375 188.644531 119.421875 175.265625 119.769531 161.878906 C 120.113281 148.523438 120.875 135.195312 121.910156 123.257812 Z M 177.332031 138.699219 C 168.179688 142.050781 162.59375 148.425781 160.171875 156.019531 C 158.574219 161.035156 158.335938 166.492188 159.308594 171.820312 C 160.007812 175.660156 161.339844 179.390625 163.175781 182.855469 C 164.476562 185.3125 166 187.632812 167.832031 189.726562 C 172.078125 194.574219 177.878906 198.023438 185.121094 199.207031 C 189.757812 199.882812 194.277344 199.457031 198.382812 197.960938 C 202.566406 196.4375 206.3125 193.820312 209.351562 190.539062 C 215.082031 184.367188 218.4375 175.792969 218.039062 166.875 C 217.765625 160.070312 215.085938 153.84375 210.757812 148.929688 C 208.9375 146.863281 206.839844 145.039062 204.496094 143.4375 C 201.511719 141.398438 198.140625 139.796875 194.285156 138.808594 C 189.296875 137.535156 183.664062 137.433594 177.332031 138.699219 Z M 179.910156 147.261719 C 183.835938 145.648438 187.507812 144.71875 191.003906 144.679688 C 195.148438 144.636719 198.9375 145.46875 202.125 147.234375 C 203.226562 147.847656 204.253906 148.558594 205.179688 149.375 C 206.59375 150.617188 207.773438 152.082031 208.761719 153.652344 C 211.175781 157.492188 212.222656 162.105469 211.945312 166.828125 C 211.527344 173.792969 208.128906 180.042969 203.328125 184.546875 C 200.96875 186.761719 198.210938 188.457031 195.21875 189.648438 C 192.320312 190.800781 189.226562 191.59375 185.890625 191.421875 C 178.890625 191.167969 173.148438 188.03125 169.328125 183.230469 C 167.945312 181.496094 166.792969 179.566406 165.957031 177.511719 C 165.117188 175.445312 164.609375 173.246094 164.347656 171.042969 C 163.699219 165.59375 164.800781 160.03125 167.652344 155.519531 C 170.175781 151.53125 174.296875 148.59375 179.910156 147.261719 Z M 227.050781 110.667969 C 225.175781 110.71875 220.535156 112.914062 219.664062 116.554688 C 219.417969 117.589844 217.75 126.863281 227.191406 127.527344 C 228.644531 127.628906 237.71875 126.839844 236.507812 118.730469 C 235.359375 111.019531 230.929688 110.566406 227.050781 110.667969 Z M 227.050781 110.667969 " fill-opacity="1" fill-rule="evenodd"/></g></svg>