<svg xmlns="http://www.w3.org/2000/svg" xmlns:xlink="http://www.w3.org/1999/xlink" width="500" zoomAndPan="magnify" viewBox="0 0 375 374.999991" height="500" preserveAspectRatio="xMidYMid meet" version="1.0"><defs><clipPath id="59d10fbe4f"><path d="M 114.1875 114 L 260 114 L 260 262 L 114.1875 262 Z M 114.1875 114 " clip-rule="nonzero"/></clipPath></defs><g clip-path="url(#59d10fbe4f)"><path fill="#a1e5ab" d="M 182.113281 158.542969 C 187.753906 152.648438 193.5625 146.222656 199.90625 140.441406 C 207.546875 133.476562 216.003906 127.386719 223.503906 120.28125 C 230.582031 113.628906 237.914062 112.414062 246.34375 116.730469 C 250.09375 118.589844 253.589844 120.449219 257.03125 122.648438 C 260.46875 124.851562 260.863281 126.511719 258.328125 129.925781 C 256.609375 132.300781 254.515625 134.277344 252.039062 135.847656 C 237.769531 144.5625 224.476562 154.582031 212.171875 165.902344 C 209.617188 168.441406 207.21875 171.117188 204.980469 173.9375 C 213.242188 185.722656 222.207031 197.085938 229.539062 209.40625 C 236.871094 221.730469 244.597656 233.996094 249.023438 248.710938 C 243.382812 252.886719 238 257.171875 232.105469 260.921875 C 231.390625 261.292969 230.636719 261.535156 229.84375 261.652344 C 229.046875 261.769531 228.257812 261.753906 227.46875 261.605469 C 226.675781 261.457031 225.933594 261.183594 225.234375 260.789062 C 224.539062 260.390625 223.921875 259.890625 223.394531 259.285156 C 217.332031 253.984375 213.523438 247.050781 209.492188 240.339844 C 201.625 227.253906 194.238281 213.835938 186.625 200.554688 C 185.980469 199.667969 185.265625 198.839844 184.484375 198.074219 C 181.855469 200.207031 179.355469 202.480469 176.984375 204.898438 C 169.738281 213.355469 162.492188 221.8125 155.640625 230.441406 C 151.183594 236.082031 147.546875 242.398438 143.261719 248.203125 C 139.878906 252.828125 137.398438 253.308594 132.179688 250.855469 C 130.800781 250.207031 129.726562 248.964844 128.375 248.203125 C 115.574219 240.675781 119.011719 235.433594 124.738281 226.75 C 130.96875 217.160156 138.664062 208.476562 145.742188 199.425781 C 148.558594 196.207031 151.160156 192.824219 153.550781 189.277344 C 154.089844 188.210938 154.414062 187.085938 154.53125 185.898438 C 154.648438 184.714844 154.546875 183.546875 154.230469 182.398438 C 152.058594 175.460938 146.757812 170.75 141.542969 166.042969 C 134.492188 159.644531 125.863281 155.835938 117.574219 151.324219 C 117.054688 151.132812 116.585938 150.855469 116.171875 150.492188 C 115.753906 150.128906 115.414062 149.699219 115.15625 149.210938 C 114.894531 148.722656 114.730469 148.203125 114.664062 147.65625 C 114.59375 147.105469 114.625 146.5625 114.753906 146.023438 C 115.203125 142.519531 116.222656 139.191406 117.820312 136.042969 C 119.417969 132.890625 121.496094 130.101562 124.058594 127.667969 C 124.527344 127.207031 125.03125 126.789062 125.566406 126.410156 C 126.101562 126.03125 126.667969 125.695312 127.257812 125.410156 C 127.851562 125.125 128.460938 124.886719 129.089844 124.703125 C 129.722656 124.515625 130.363281 124.382812 131.015625 124.300781 C 131.664062 124.21875 132.320312 124.191406 132.976562 124.21875 C 133.632812 124.246094 134.28125 124.324219 134.925781 124.457031 C 135.570312 124.589844 136.199219 124.773438 136.8125 125.011719 C 137.425781 125.246094 138.015625 125.53125 138.582031 125.863281 C 144.128906 128.410156 149.34375 131.511719 154.230469 135.167969 C 163.476562 142.386719 172.246094 150.199219 182.113281 158.542969 Z M 241.015625 245.75 L 235.996094 235.628906 C 229.371094 222.519531 222.828125 209.4375 213.242188 198.074219 C 208.714844 192.421875 204.515625 186.539062 200.640625 180.421875 C 196.464844 174.164062 196.71875 172.386719 201.710938 166.890625 C 213.847656 153.769531 227.597656 142.640625 242.960938 133.503906 C 245.78125 131.871094 248.601562 130.6875 249.671875 127.246094 C 240.761719 119.632812 235.769531 119.351562 226.890625 126.148438 C 224.71875 127.78125 222.828125 129.671875 220.769531 131.390625 C 213.664062 137.285156 206.277344 142.839844 199.539062 149.097656 C 192.800781 155.355469 187.414062 161.671875 180.789062 168.636719 C 179.359375 167.714844 178.027344 166.671875 176.785156 165.507812 C 173.035156 161.617188 169.625 157.445312 165.847656 153.636719 C 157.621094 145.402344 148.335938 138.613281 137.988281 133.28125 C 132.097656 130.207031 128.234375 131.589844 125.273438 137.621094 C 124.117188 139.992188 123.214844 142.386719 121.832031 145.574219 C 125.609375 147.632812 129.050781 149.773438 132.714844 151.410156 C 138.273438 153.996094 143.335938 157.332031 147.902344 161.421875 C 152.46875 165.507812 156.34375 170.167969 159.53125 175.402344 C 160.046875 176.113281 160.496094 176.863281 160.882812 177.652344 C 161.265625 178.441406 161.582031 179.257812 161.824219 180.101562 C 162.070312 180.945312 162.238281 181.800781 162.335938 182.675781 C 162.429688 183.546875 162.449219 184.421875 162.394531 185.296875 C 162.335938 186.175781 162.207031 187.039062 162 187.894531 C 161.792969 188.746094 161.515625 189.574219 161.167969 190.378906 C 160.816406 191.1875 160.398438 191.953125 159.917969 192.6875 C 159.433594 193.421875 158.890625 194.105469 158.289062 194.746094 C 152.480469 201.9375 146.449219 208.84375 140.863281 216.34375 C 135.957031 222.800781 131.671875 229.625 127.386719 235.433594 C 128.234375 241.890625 133.535156 241.890625 136.972656 245.46875 C 139.199219 241.890625 140.894531 238.730469 143.007812 235.910156 C 152.648438 223.167969 161.898438 210.113281 173.261719 198.777344 C 175.570312 196.382812 178.097656 194.25 180.847656 192.378906 C 181.25 192.078125 181.679688 191.824219 182.136719 191.617188 C 182.597656 191.410156 183.070312 191.253906 183.5625 191.144531 C 184.054688 191.039062 184.550781 190.988281 185.054688 190.988281 C 185.558594 190.988281 186.054688 191.042969 186.546875 191.148438 C 187.039062 191.253906 187.511719 191.414062 187.96875 191.621094 C 188.425781 191.828125 188.859375 192.085938 189.261719 192.386719 C 189.664062 192.683594 190.03125 193.023438 190.363281 193.402344 C 190.691406 193.785156 190.980469 194.191406 191.222656 194.632812 C 194.859375 200.273438 198.242188 206.222656 201.738281 212 C 209.125 224.324219 216.457031 236.699219 223.984375 248.910156 C 225.496094 250.84375 227.207031 252.585938 229.117188 254.125 Z M 241.015625 245.75 " fill-opacity="1" fill-rule="nonzero"/></g></svg>